<svg width="279" height="65" viewBox="0 0 279 65" fill="none" xmlns="http://www.w3.org/2000/svg">
<path d="M38.5554 31.5347V30.1446H27.6955V10.9149H26.144V31.5347H38.5554Z" fill="black"/>
<path d="M54.6507 21.2248C54.6507 20.0663 54.6411 19.072 54.622 18.2418C54.6028 17.3923 54.5262 16.649 54.3921 16.0119C54.2772 15.3748 54.0857 14.8052 53.8175 14.3032C53.5685 13.8012 53.2142 13.3186 52.7545 12.8552C52.0841 12.1795 51.3084 11.6582 50.4274 11.2913C49.5463 10.9245 48.6174 10.7411 47.6406 10.7411C46.6638 10.7411 45.7348 10.9245 44.8538 11.2913C43.9727 11.6582 43.197 12.1795 42.5266 12.8552C42.067 13.3186 41.703 13.8012 41.4349 14.3032C41.1859 14.8052 40.9944 15.3748 40.8603 16.0119C40.7454 16.649 40.6783 17.3923 40.6592 18.2418C40.64 19.072 40.6305 20.0663 40.6305 21.2248C40.6305 22.3832 40.64 23.3871 40.6592 24.2366C40.6783 25.0861 40.7454 25.8295 40.8603 26.4666C40.9944 27.1037 41.1859 27.6733 41.4349 28.1752C41.703 28.6579 42.067 29.1309 42.5266 29.5943C43.197 30.2701 43.9727 30.7913 44.8538 31.1582C45.7348 31.525 46.6638 31.7084 47.6406 31.7084C48.6174 31.7084 49.5463 31.525 50.4274 31.1582C51.3084 30.7913 52.0841 30.2701 52.7545 29.5943C53.2142 29.1309 53.5685 28.6579 53.8175 28.1752C54.0857 27.6733 54.2772 27.1037 54.3921 26.4666C54.5262 25.8295 54.6028 25.0861 54.622 24.2366C54.6411 23.3871 54.6507 22.3832 54.6507 21.2248ZM53.0993 21.2248C53.0993 22.3252 53.0801 23.2713 53.0418 24.0629C53.0227 24.8351 52.9556 25.5109 52.8407 26.0901C52.7449 26.65 52.5917 27.1423 52.381 27.5671C52.1703 27.9725 51.883 28.3587 51.5191 28.7255C51.002 29.2468 50.4082 29.6426 49.7379 29.9129C49.0675 30.1832 48.3684 30.3183 47.6406 30.3183C46.9127 30.3183 46.2137 30.1832 45.5433 29.9129C44.8729 29.6426 44.2792 29.2468 43.762 28.7255C43.3981 28.3587 43.1108 27.9725 42.9001 27.5671C42.6894 27.1423 42.5266 26.65 42.4117 26.0901C42.316 25.5109 42.2489 24.8351 42.2106 24.0629C42.1915 23.2713 42.1819 22.3252 42.1819 21.2248C42.1819 20.1243 42.1915 19.1879 42.2106 18.4156C42.2489 17.624 42.316 16.9483 42.4117 16.3884C42.5266 15.8092 42.6894 15.3168 42.9001 14.9114C43.1108 14.4866 43.3981 14.0908 43.762 13.724C44.2792 13.2027 44.8729 12.8069 45.5433 12.5366C46.2137 12.2663 46.9127 12.1312 47.6406 12.1312C48.3684 12.1312 49.0675 12.2663 49.7379 12.5366C50.4082 12.8069 51.002 13.2027 51.5191 13.724C51.883 14.0908 52.1703 14.4866 52.381 14.9114C52.5917 15.3168 52.7449 15.8092 52.8407 16.3884C52.9556 16.9483 53.0227 17.624 53.0418 18.4156C53.0801 19.1879 53.0993 20.1243 53.0993 21.2248Z" fill="black"/>
<path d="M77.3572 31.5347V10.9149H75.8058L68.8532 26.8141L61.7281 10.9149H60.1767V31.5347H61.7281V14.5349L68.0487 28.6386H69.6002L75.8058 14.5349V31.5347H77.3572Z" fill="black"/>
<path d="M100.869 31.5347V10.9149H99.3173L92.3646 26.8141L85.2396 10.9149H83.6882V31.5347H85.2396V14.5349L91.5602 28.6386H93.1116L99.3173 14.5349V31.5347H100.869Z" fill="black"/>
<path d="M119.611 31.5347V30.1446H108.751V21.8329H118.002V20.4428H108.751V12.305H119.611V10.9149H107.2V31.5347H119.611Z" fill="black"/>
<path d="M140.887 61.7822V61.2879H137.025V54.4507H136.474V61.7822H140.887Z" fill="#494949"/>
<path d="M142.648 55.0994V54.4507H142.004V55.0994H142.648ZM142.586 61.7822V56.819H142.065V61.7822H142.586Z" fill="#494949"/>
<path d="M147.982 62.0602V56.819H147.461V57.4574C147.243 57.1691 147.015 56.9803 146.777 56.8911C146.539 56.8019 146.28 56.7572 146.001 56.7572C145.742 56.7572 145.507 56.7984 145.296 56.8808C145.091 56.9563 144.925 57.0593 144.795 57.1897C144.543 57.4437 144.373 57.7629 144.284 58.1473C144.203 58.5249 144.162 58.9093 144.162 59.3006C144.162 59.6919 144.203 60.0797 144.284 60.4642C144.373 60.8417 144.543 61.1575 144.795 61.4115C144.925 61.5419 145.091 61.6483 145.296 61.7307C145.507 61.8062 145.742 61.844 146.001 61.844C146.28 61.844 146.539 61.7993 146.777 61.7101C147.015 61.6209 147.243 61.4321 147.461 61.1438V62.0293C147.461 62.2764 147.431 62.503 147.369 62.7089C147.315 62.9217 147.226 63.1036 147.104 63.2547C146.981 63.4125 146.825 63.5327 146.634 63.6151C146.45 63.7043 146.229 63.7489 145.97 63.7489C145.813 63.7489 145.677 63.7352 145.561 63.7077C145.446 63.6871 145.34 63.6528 145.245 63.6048C145.149 63.5636 145.057 63.5086 144.969 63.44C144.88 63.3714 144.788 63.2924 144.693 63.2032L144.346 63.5533C144.475 63.67 144.598 63.7695 144.713 63.8519C144.829 63.9343 144.948 64.0029 145.071 64.0578C145.2 64.1127 145.337 64.1505 145.48 64.1711C145.623 64.1986 145.786 64.2123 145.97 64.2123C146.29 64.2123 146.573 64.1574 146.818 64.0475C147.07 63.9446 147.281 63.797 147.451 63.6048C147.628 63.4125 147.761 63.1826 147.85 62.9149C147.938 62.654 147.982 62.3691 147.982 62.0602ZM147.461 59.3006C147.461 59.5615 147.444 59.8154 147.41 60.0626C147.383 60.3097 147.318 60.5328 147.216 60.7319C147.121 60.9241 146.981 61.082 146.797 61.2055C146.613 61.3222 146.372 61.3806 146.072 61.3806C145.772 61.3806 145.531 61.3222 145.347 61.2055C145.163 61.082 145.02 60.9241 144.918 60.7319C144.822 60.5328 144.758 60.3097 144.724 60.0626C144.696 59.8154 144.683 59.5615 144.683 59.3006C144.683 59.0466 144.696 58.796 144.724 58.5489C144.758 58.2949 144.822 58.0718 144.918 57.8796C145.02 57.6805 145.163 57.5226 145.347 57.4059C145.531 57.2824 145.772 57.2206 146.072 57.2206C146.372 57.2206 146.613 57.2824 146.797 57.4059C146.981 57.5226 147.121 57.6805 147.216 57.8796C147.318 58.0718 147.383 58.2949 147.41 58.5489C147.444 58.796 147.461 59.0466 147.461 59.3006Z" fill="#494949"/>
<path d="M153.633 61.7822V58.6107C153.633 58.0341 153.469 57.581 153.143 57.2515C152.823 56.922 152.38 56.7572 151.815 56.7572C151.215 56.7572 150.732 56.9735 150.364 57.4059V54.4507H149.843V61.7822H150.364V58.7034C150.364 58.2297 150.483 57.8659 150.722 57.6119C150.967 57.351 151.311 57.2206 151.753 57.2206C152.196 57.2206 152.533 57.3476 152.765 57.6016C152.996 57.8556 153.112 58.2228 153.112 58.7034V61.7822H153.633Z" fill="#494949"/>
<path d="M157.185 61.7822V61.3188H156.827C156.569 61.3188 156.378 61.2467 156.255 61.1026C156.133 60.9584 156.071 60.7559 156.071 60.4951V57.2103H157.185V56.819H156.071V55.2333H155.55V56.819H154.876V57.2103H155.55V60.4848C155.55 60.8623 155.649 61.1747 155.847 61.4218C156.051 61.6621 156.347 61.7822 156.735 61.7822H157.185Z" fill="#494949"/>
<path d="M165.943 58.1164C165.943 57.7046 165.939 57.351 165.932 57.0558C165.926 56.7538 165.898 56.4895 165.851 56.263C165.81 56.0364 165.742 55.8339 165.646 55.6555C165.558 55.477 165.432 55.3054 165.268 55.1406C165.03 54.9003 164.754 54.715 164.441 54.5846C164.128 54.4541 163.797 54.3889 163.45 54.3889C163.103 54.3889 162.773 54.4541 162.459 54.5846C162.146 54.715 161.87 54.9003 161.632 55.1406C161.468 55.3054 161.339 55.477 161.244 55.6555C161.155 55.8339 161.087 56.0364 161.039 56.263C160.998 56.4895 160.975 56.7538 160.968 57.0558C160.961 57.351 160.958 57.7046 160.958 58.1164C160.958 58.5283 160.961 58.8853 160.968 59.1873C160.975 59.4894 160.998 59.7537 161.039 59.9802C161.087 60.2067 161.155 60.4092 161.244 60.5877C161.339 60.7593 161.468 60.9275 161.632 61.0923C161.87 61.3325 162.146 61.5179 162.459 61.6483C162.773 61.7787 163.103 61.844 163.45 61.844C163.797 61.844 164.128 61.7787 164.441 61.6483C164.754 61.5179 165.03 61.3325 165.268 61.0923C165.432 60.9275 165.558 60.7593 165.646 60.5877C165.742 60.4092 165.81 60.2067 165.851 59.9802C165.898 59.7537 165.926 59.4894 165.932 59.1873C165.939 58.8853 165.943 58.5283 165.943 58.1164ZM165.391 58.1164C165.391 58.5077 165.384 58.8441 165.371 59.1255C165.364 59.4001 165.34 59.6404 165.299 59.8463C165.265 60.0454 165.211 60.2205 165.136 60.3715C165.061 60.5156 164.959 60.6529 164.829 60.7834C164.645 60.9687 164.434 61.1094 164.196 61.2055C163.957 61.3017 163.709 61.3497 163.45 61.3497C163.191 61.3497 162.943 61.3017 162.704 61.2055C162.466 61.1094 162.255 60.9687 162.071 60.7834C161.942 60.6529 161.84 60.5156 161.765 60.3715C161.69 60.2205 161.632 60.0454 161.591 59.8463C161.557 59.6404 161.533 59.4001 161.519 59.1255C161.513 58.8441 161.509 58.5077 161.509 58.1164C161.509 57.7252 161.513 57.3922 161.519 57.1176C161.533 56.8362 161.557 56.5959 161.591 56.3968C161.632 56.1909 161.69 56.0158 161.765 55.8717C161.84 55.7207 161.942 55.5799 162.071 55.4495C162.255 55.2642 162.466 55.1234 162.704 55.0273C162.943 54.9312 163.191 54.8832 163.45 54.8832C163.709 54.8832 163.957 54.9312 164.196 55.0273C164.434 55.1234 164.645 55.2642 164.829 55.4495C164.959 55.5799 165.061 55.7207 165.136 55.8717C165.211 56.0158 165.265 56.1909 165.299 56.3968C165.34 56.5959 165.364 56.8362 165.371 57.1176C165.384 57.3922 165.391 57.7252 165.391 58.1164Z" fill="#494949"/>
<path d="M170.912 56.819H170.34L168.859 61.1644L167.378 56.819H166.805L168.603 61.7822H169.114L170.912 56.819Z" fill="#494949"/>
<path d="M175.479 59.4139V59.177C175.479 58.4151 175.305 57.8213 174.958 57.3956C174.61 56.97 174.127 56.7572 173.507 56.7572C172.887 56.7572 172.404 56.9803 172.057 57.4265C171.709 57.8727 171.536 58.4974 171.536 59.3006C171.536 60.1312 171.713 60.7628 172.067 61.1953C172.428 61.6277 172.949 61.844 173.63 61.844C173.834 61.844 174.018 61.8268 174.181 61.7925C174.345 61.765 174.495 61.7204 174.631 61.6586C174.774 61.59 174.907 61.5076 175.029 61.4115C175.158 61.3154 175.284 61.2055 175.407 61.082L175.019 60.7731C174.808 60.9859 174.6 61.1403 174.396 61.2364C174.198 61.3257 173.953 61.3703 173.66 61.3703C173.136 61.3703 172.738 61.2021 172.465 60.8657C172.193 60.5294 172.057 60.0454 172.057 59.4139H175.479ZM174.958 58.9917H172.057C172.063 58.875 172.07 58.7754 172.077 58.6931C172.084 58.6038 172.094 58.5283 172.108 58.4665C172.121 58.3979 172.135 58.3327 172.148 58.2709C172.169 58.2022 172.196 58.1302 172.23 58.0547C172.339 57.7938 172.506 57.5913 172.731 57.4471C172.962 57.2961 173.221 57.2206 173.507 57.2206C173.793 57.2206 174.048 57.2961 174.273 57.4471C174.505 57.5913 174.675 57.7938 174.784 58.0547C174.811 58.1302 174.835 58.2022 174.855 58.2709C174.876 58.3327 174.893 58.3979 174.907 58.4665C174.92 58.5283 174.93 58.6038 174.937 58.6931C174.944 58.7754 174.951 58.875 174.958 58.9917Z" fill="#494949"/>
<path d="M180.193 57.2309C180.016 57.0524 179.833 56.9288 179.642 56.8602C179.458 56.7916 179.247 56.7572 179.009 56.7572C178.716 56.7572 178.436 56.819 178.171 56.9426C177.912 57.0661 177.711 57.2446 177.568 57.478V56.819H177.047V61.7822H177.568V58.724C177.568 58.5249 177.595 58.3361 177.65 58.1576C177.711 57.9723 177.796 57.811 177.905 57.6737C178.021 57.5364 178.161 57.4265 178.324 57.3442C178.488 57.2618 178.675 57.2206 178.886 57.2206C179.09 57.2206 179.257 57.2481 179.386 57.303C179.523 57.3579 179.666 57.4609 179.816 57.6119L180.193 57.2309Z" fill="#494949"/>
<path d="M189.83 61.7822V54.4507H189.278L186.806 60.1038L184.272 54.4507H183.721V61.7822H184.272V55.7378L186.52 60.7525H187.071L189.278 55.7378V61.7822H189.83Z" fill="#494949"/>
<path d="M195.238 61.7822V58.3842C195.238 57.8624 195.082 57.4609 194.768 57.1794C194.462 56.898 193.982 56.7572 193.328 56.7572C192.926 56.7572 192.589 56.8122 192.317 56.922C192.044 57.025 191.803 57.224 191.591 57.5192L191.969 57.8487C192.126 57.6222 192.303 57.4609 192.501 57.3648C192.705 57.2687 192.981 57.2206 193.328 57.2206C193.832 57.2206 194.189 57.3236 194.401 57.5295C194.612 57.7355 194.717 58.0375 194.717 58.4356V58.9917H193.124C192.586 58.9917 192.163 59.1187 191.857 59.3727C191.557 59.6198 191.408 59.9699 191.408 60.423C191.408 60.6083 191.438 60.7868 191.5 60.9584C191.561 61.13 191.649 61.2742 191.765 61.3909C191.922 61.5556 192.109 61.6723 192.327 61.741C192.552 61.8096 192.848 61.844 193.216 61.844C193.563 61.844 193.846 61.8062 194.063 61.7307C194.288 61.6483 194.506 61.5007 194.717 61.2879V61.7822H195.238ZM194.717 60.0523C194.717 60.5122 194.625 60.828 194.441 60.9996C194.264 61.1712 194.07 61.2776 193.859 61.3188C193.655 61.36 193.44 61.3806 193.216 61.3806C192.766 61.3806 192.439 61.3017 192.235 61.1438C192.031 60.9859 191.929 60.7422 191.929 60.4127C191.929 59.7468 192.347 59.4139 193.185 59.4139H194.717V60.0523Z" fill="#494949"/>
<path d="M198.819 61.7822V61.3188H198.462C198.203 61.3188 198.012 61.2467 197.889 61.1026C197.767 60.9584 197.706 60.7559 197.706 60.4951V57.2103H198.819V56.819H197.706V55.2333H197.185V56.819H196.51V57.2103H197.185V60.4848C197.185 60.8623 197.283 61.1747 197.481 61.4218C197.685 61.6621 197.981 61.7822 198.37 61.7822H198.819Z" fill="#494949"/>
<path d="M202.02 61.7822V61.3188H201.662C201.403 61.3188 201.213 61.2467 201.09 61.1026C200.967 60.9584 200.906 60.7559 200.906 60.4951V57.2103H202.02V56.819H200.906V55.2333H200.385V56.819H199.711V57.2103H200.385V60.4848C200.385 60.8623 200.484 61.1747 200.681 61.4218C200.886 61.6621 201.182 61.7822 201.57 61.7822H202.02Z" fill="#494949"/>
<path d="M207.02 59.4139V59.177C207.02 58.4151 206.847 57.8213 206.5 57.3956C206.152 56.97 205.669 56.7572 205.049 56.7572C204.429 56.7572 203.946 56.9803 203.598 57.4265C203.251 57.8727 203.077 58.4974 203.077 59.3006C203.077 60.1312 203.255 60.7628 203.609 61.1953C203.97 61.6277 204.491 61.844 205.172 61.844C205.376 61.844 205.56 61.8268 205.723 61.7925C205.887 61.765 206.036 61.7204 206.173 61.6586C206.316 61.59 206.448 61.5076 206.571 61.4115C206.7 61.3154 206.826 61.2055 206.949 61.082L206.561 60.7731C206.35 60.9859 206.142 61.1403 205.938 61.2364C205.74 61.3257 205.495 61.3703 205.202 61.3703C204.678 61.3703 204.279 61.2021 204.007 60.8657C203.735 60.5294 203.598 60.0454 203.598 59.4139H207.02ZM206.5 58.9917H203.598C203.605 58.875 203.612 58.7754 203.619 58.6931C203.626 58.6038 203.636 58.5283 203.649 58.4665C203.663 58.3979 203.677 58.3327 203.69 58.2709C203.711 58.2022 203.738 58.1302 203.772 58.0547C203.881 57.7938 204.048 57.5913 204.273 57.4471C204.504 57.2961 204.763 57.2206 205.049 57.2206C205.335 57.2206 205.59 57.2961 205.815 57.4471C206.047 57.5913 206.217 57.7938 206.326 58.0547C206.353 58.1302 206.377 58.2022 206.397 58.2709C206.418 58.3327 206.435 58.3979 206.448 58.4665C206.462 58.5283 206.472 58.6038 206.479 58.6931C206.486 58.7754 206.493 58.875 206.5 58.9917Z" fill="#494949"/>
<path d="M211.735 57.2309C211.558 57.0524 211.374 56.9288 211.184 56.8602C211 56.7916 210.789 56.7572 210.55 56.7572C210.258 56.7572 209.978 56.819 209.713 56.9426C209.454 57.0661 209.253 57.2446 209.11 57.478V56.819H208.589V61.7822H209.11V58.724C209.11 58.5249 209.137 58.3361 209.192 58.1576C209.253 57.9723 209.338 57.811 209.447 57.6737C209.563 57.5364 209.703 57.4265 209.866 57.3442C210.029 57.2618 210.217 57.2206 210.428 57.2206C210.632 57.2206 210.799 57.2481 210.928 57.303C211.065 57.3579 211.208 57.4609 211.357 57.6119L211.735 57.2309Z" fill="#494949"/>
<path d="M221.371 61.7822V54.4507H220.82L218.348 60.1038L215.814 54.4507H215.263V61.7822H215.814V55.7378L218.062 60.7525H218.613L220.82 55.7378V61.7822H221.371Z" fill="#494949"/>
<path d="M223.951 55.0994V54.4507H223.307V55.0994H223.951ZM223.889 61.7822V56.819H223.368V61.7822H223.889Z" fill="#494949"/>
<path d="M229.541 61.7822V58.6107C229.541 58.0203 229.37 57.5604 229.03 57.2309C228.703 56.9151 228.267 56.7572 227.722 56.7572C227.123 56.7572 226.64 56.9735 226.272 57.4059V56.819H225.751V61.7822H226.272V58.7034C226.272 58.2297 226.391 57.8659 226.629 57.6119C226.875 57.351 227.218 57.2206 227.661 57.2206C228.104 57.2206 228.441 57.3476 228.672 57.6016C228.904 57.8556 229.02 58.2228 229.02 58.7034V61.7822H229.541Z" fill="#494949"/>
<path d="M234.87 61.7822V54.4507H234.349V57.4574C234.131 57.1691 233.903 56.9803 233.665 56.8911C233.426 56.8019 233.168 56.7572 232.888 56.7572C232.63 56.7572 232.395 56.7984 232.184 56.8808C231.979 56.9563 231.812 57.0593 231.683 57.1897C231.431 57.4437 231.261 57.7629 231.172 58.1473C231.091 58.5249 231.05 58.9093 231.05 59.3006C231.05 59.6919 231.091 60.0797 231.172 60.4642C231.261 60.8417 231.431 61.1575 231.683 61.4115C231.812 61.5419 231.979 61.6483 232.184 61.7307C232.395 61.8062 232.63 61.844 232.888 61.844C233.168 61.844 233.426 61.7993 233.665 61.7101C233.903 61.6209 234.131 61.4321 234.349 61.1438V61.7822H234.87ZM234.349 59.3006C234.349 59.5615 234.332 59.8154 234.298 60.0626C234.271 60.3097 234.206 60.5328 234.104 60.7319C234.009 60.9241 233.869 61.082 233.685 61.2055C233.501 61.3222 233.26 61.3806 232.96 61.3806C232.66 61.3806 232.418 61.3222 232.235 61.2055C232.051 61.082 231.908 60.9241 231.806 60.7319C231.71 60.5328 231.646 60.3097 231.611 60.0626C231.584 59.8154 231.571 59.5615 231.571 59.3006C231.571 59.0466 231.584 58.796 231.611 58.5489C231.646 58.2949 231.71 58.0718 231.806 57.8796C231.908 57.6805 232.051 57.5226 232.235 57.4059C232.418 57.2824 232.66 57.2206 232.96 57.2206C233.26 57.2206 233.501 57.2824 233.685 57.4059C233.869 57.5226 234.009 57.6805 234.104 57.8796C234.206 58.0718 234.271 58.2949 234.298 58.5489C234.332 58.796 234.349 59.0466 234.349 59.3006Z" fill="#494949"/>
<path d="M243.759 61.7822V61.2879H239.898V58.3327H243.187V57.8384H239.898V54.945H243.759V54.4507H239.346V61.7822H243.759Z" fill="#494949"/>
<path d="M248.456 56.819H247.884L246.402 61.1644L244.921 56.819H244.349L246.147 61.7822H246.658L248.456 56.819Z" fill="#494949"/>
<path d="M253.043 59.3006C253.043 58.9436 253.005 58.5867 252.93 58.2297C252.856 57.8727 252.689 57.5638 252.43 57.303C252.253 57.1245 252.049 56.9906 251.817 56.9014C251.592 56.8053 251.34 56.7572 251.061 56.7572C250.509 56.7572 250.053 56.9391 249.692 57.303C249.433 57.5638 249.267 57.8727 249.192 58.2297C249.117 58.5867 249.079 58.9436 249.079 59.3006C249.079 59.6576 249.117 60.0145 249.192 60.3715C249.267 60.7285 249.433 61.0374 249.692 61.2982C250.053 61.662 250.509 61.844 251.061 61.844C251.34 61.844 251.592 61.7993 251.817 61.7101C252.049 61.614 252.253 61.4767 252.43 61.2982C252.689 61.0374 252.856 60.7285 252.93 60.3715C253.005 60.0145 253.043 59.6576 253.043 59.3006ZM252.522 59.3006C252.522 59.4448 252.518 59.5923 252.512 59.7434C252.505 59.8944 252.484 60.0454 252.45 60.1964C252.423 60.3406 252.379 60.4779 252.318 60.6083C252.263 60.7387 252.185 60.8554 252.083 60.9584C251.946 61.0957 251.79 61.2021 251.613 61.2776C251.442 61.3463 251.259 61.3806 251.061 61.3806C250.659 61.3806 250.319 61.2399 250.04 60.9584C249.937 60.8554 249.856 60.7387 249.794 60.6083C249.74 60.4779 249.696 60.3406 249.662 60.1964C249.634 60.0454 249.617 59.8944 249.611 59.7434C249.604 59.5923 249.6 59.4448 249.6 59.3006C249.6 59.1564 249.604 59.0088 249.611 58.8578C249.617 58.7068 249.634 58.5592 249.662 58.4151C249.696 58.264 249.74 58.1233 249.794 57.9929C249.856 57.8624 249.937 57.7457 250.04 57.6428C250.319 57.3613 250.659 57.2206 251.061 57.2206C251.259 57.2206 251.442 57.2584 251.613 57.3339C251.79 57.4025 251.946 57.5055 252.083 57.6428C252.185 57.7457 252.263 57.8624 252.318 57.9929C252.379 58.1233 252.423 58.264 252.45 58.4151C252.484 58.5592 252.505 58.7068 252.512 58.8578C252.518 59.0088 252.522 59.1564 252.522 59.3006Z" fill="#494949"/>
<path d="M256.235 61.7822V61.3188H255.877C255.585 61.3188 255.384 61.2502 255.275 61.1129C255.173 60.9756 255.121 60.7662 255.121 60.4848V54.4507H254.601V60.4951C254.601 60.8863 254.696 61.1987 254.887 61.4321C255.084 61.6655 255.384 61.7822 255.785 61.7822H256.235Z" fill="#494949"/>
<path d="M261.161 61.7822V56.819H260.64V59.8978C260.64 60.3715 260.517 60.7387 260.272 60.9996C260.034 61.2536 259.693 61.3806 259.251 61.3806C258.808 61.3806 258.471 61.2536 258.239 60.9996C258.008 60.7456 257.892 60.3784 257.892 59.8978V56.819H257.371V59.9905C257.371 60.5809 257.541 61.0408 257.882 61.3703C258.209 61.6861 258.645 61.844 259.189 61.844C259.789 61.844 260.272 61.6277 260.64 61.1953V61.7822H261.161Z" fill="#494949"/>
<path d="M264.774 61.7822V61.3188H264.417C264.158 61.3188 263.967 61.2467 263.845 61.1026C263.722 60.9584 263.661 60.7559 263.661 60.4951V57.2103H264.774V56.819H263.661V55.2333H263.14V56.819H262.466V57.2103H263.14V60.4848C263.14 60.8623 263.239 61.1747 263.436 61.4218C263.64 61.6621 263.937 61.7822 264.325 61.7822H264.774Z" fill="#494949"/>
<path d="M266.8 55.0994V54.4507H266.157V55.0994H266.8ZM266.739 61.7822V56.819H266.218V61.7822H266.739Z" fill="#494949"/>
<path d="M272.278 59.3006C272.278 58.9436 272.24 58.5867 272.166 58.2297C272.091 57.8727 271.924 57.5638 271.665 57.303C271.488 57.1245 271.284 56.9906 271.052 56.9014C270.827 56.8053 270.575 56.7572 270.296 56.7572C269.745 56.7572 269.288 56.9391 268.927 57.303C268.669 57.5638 268.502 57.8727 268.427 58.2297C268.352 58.5867 268.314 58.9436 268.314 59.3006C268.314 59.6576 268.352 60.0145 268.427 60.3715C268.502 60.7285 268.669 61.0374 268.927 61.2982C269.288 61.662 269.745 61.844 270.296 61.844C270.575 61.844 270.827 61.7993 271.052 61.7101C271.284 61.614 271.488 61.4767 271.665 61.2982C271.924 61.0374 272.091 60.7285 272.166 60.3715C272.24 60.0145 272.278 59.6576 272.278 59.3006ZM271.757 59.3006C271.757 59.4448 271.754 59.5923 271.747 59.7434C271.74 59.8944 271.719 60.0454 271.685 60.1964C271.658 60.3406 271.614 60.4779 271.553 60.6083C271.498 60.7387 271.42 60.8554 271.318 60.9584C271.181 61.0957 271.025 61.2021 270.848 61.2776C270.678 61.3463 270.494 61.3806 270.296 61.3806C269.894 61.3806 269.554 61.2399 269.275 60.9584C269.173 60.8554 269.091 60.7387 269.029 60.6083C268.975 60.4779 268.931 60.3406 268.897 60.1964C268.869 60.0454 268.852 59.8944 268.846 59.7434C268.839 59.5923 268.835 59.4448 268.835 59.3006C268.835 59.1564 268.839 59.0088 268.846 58.8578C268.852 58.7068 268.869 58.5592 268.897 58.4151C268.931 58.264 268.975 58.1233 269.029 57.9929C269.091 57.8624 269.173 57.7457 269.275 57.6428C269.554 57.3613 269.894 57.2206 270.296 57.2206C270.494 57.2206 270.678 57.2584 270.848 57.3339C271.025 57.4025 271.181 57.5055 271.318 57.6428C271.42 57.7457 271.498 57.8624 271.553 57.9929C271.614 58.1233 271.658 58.264 271.685 58.4151C271.719 58.5592 271.74 58.7068 271.747 58.8578C271.754 59.0088 271.757 59.1564 271.757 59.3006Z" fill="#494949"/>
<path d="M277.646 61.7822V58.6107C277.646 58.0203 277.476 57.5604 277.135 57.2309C276.808 56.9151 276.372 56.7572 275.828 56.7572C275.228 56.7572 274.745 56.9735 274.377 57.4059V56.819H273.856V61.7822H274.377V58.7034C274.377 58.2297 274.496 57.8659 274.735 57.6119C274.98 57.351 275.324 57.2206 275.766 57.2206C276.209 57.2206 276.546 57.3476 276.778 57.6016C277.009 57.8556 277.125 58.2228 277.125 58.7034V61.7822H277.646Z" fill="#494949"/>
<path d="M128.04 13.6758H129.7C129.92 13.6758 130.131 13.7639 130.287 13.9208C130.442 14.0777 130.53 14.2905 130.53 14.5124V15.349C130.53 15.7004 130.322 15.9974 130.015 16.1229L130.53 17.8589H129.7L129.202 16.1857H128.87V17.8589H128.04V13.6758ZM128.87 14.5124V15.349H129.7V14.5124H128.87ZM129.285 11.5842C129.83 11.5842 130.369 11.6924 130.873 11.9026C131.376 12.1128 131.834 12.4209 132.219 12.8094C132.604 13.1978 132.91 13.659 133.119 14.1665C133.327 14.674 133.435 15.218 133.435 15.7673C133.435 16.8768 132.997 17.9408 132.219 18.7253C131.441 19.5098 130.385 19.9505 129.285 19.9505C128.74 19.9505 128.2 19.8423 127.697 19.6321C127.193 19.4219 126.736 19.1137 126.35 18.7253C125.572 17.9408 125.135 16.8768 125.135 15.7673C125.135 14.6579 125.572 13.5939 126.35 12.8094C127.128 12.0249 128.184 11.5842 129.285 11.5842ZM129.285 12.4208C128.404 12.4208 127.56 12.7734 126.937 13.401C126.315 14.0286 125.965 14.8798 125.965 15.7673C125.965 17.6121 127.45 19.1139 129.285 19.1139C130.165 19.1139 131.01 18.7613 131.632 18.1337C132.255 17.5061 132.605 16.6549 132.605 15.7673C132.605 14.8798 132.255 14.0286 131.632 13.401C131.01 12.7734 130.165 12.4208 129.285 12.4208Z" fill="#777777"/>
<path fill-rule="evenodd" clip-rule="evenodd" d="M279 47.6238H0V44.4059H279V47.6238Z" fill="#B2DC2C"/>
</svg>
