<svg width="208" height="57" viewBox="0 0 208 57" fill="none" xmlns="http://www.w3.org/2000/svg">
<path d="M0 56.8889V0H208V56.8889H0ZM49.8667 43.0311C52.4133 42.5333 54.2178 42.3956 55.8667 41.8178C60.9511 40.04 64.6178 36.7911 65.3556 31.1511C66.0533 25.88 63.3911 21.1733 58.1956 18.48C53.2133 15.8933 48.0311 15.8133 43.0578 18.4311C33.7778 23.3111 33.3022 35.0222 42.2222 40.3644C44.6533 41.8267 47.6889 42.3022 49.8667 43.0311ZM151.582 17.4667L150.969 16.7244C150.32 16.76 149.662 16.76 149.013 16.8356C143.236 17.5244 138.129 22.0978 137.24 27.3689C136.24 33.2622 139.116 38.48 144.858 41.2489C150.6 44.0178 158.284 42.7644 162.853 38.3911C165.578 35.7822 166.902 32.5867 166.591 28.8222C166.542 28.2178 165.831 27.1867 165.404 27.1733C160.933 27.0533 156.444 27.1111 151.458 27.1111C152.693 28.8889 153.351 30.8622 154.653 31.5022C156.293 32.3067 158.462 32.0356 160.844 32.2711C160.022 33.5156 159.458 34.7244 158.582 35.6222C155.551 38.7333 149.382 38.8222 145.693 35.96C144.694 35.1959 143.89 34.2057 143.347 33.0707C142.804 31.9357 142.538 30.6882 142.57 29.4305C142.603 28.1728 142.933 26.9407 143.534 25.8352C144.135 24.7298 144.989 23.7825 146.027 23.0711C148.12 21.5422 149.738 19.3467 151.582 17.4667ZM69.3333 16.8C69.3333 20.6978 69.5511 24.4667 69.2889 28.2044C68.7511 35.9467 75.5111 41.76 81.7333 42.5644C89.4133 43.5556 96.96 39.36 98.2222 32.68C98.9511 28.7556 98.6667 24.6444 98.8578 20.52C93.9422 21.5511 93.3778 22.2044 93.3778 26.4178C93.3778 27.1556 93.3333 27.8978 93.3778 28.64C93.6222 32.5822 91.8756 35.4178 88.3733 37.0044C84.7467 38.6489 81.1467 38.3378 77.8844 35.9111C76.8463 35.1847 76.0075 34.2089 75.4452 33.0734C74.8829 31.938 74.6152 30.6793 74.6667 29.4133C74.7333 25.2267 74.6667 21.0444 74.6667 16.8H69.3333ZM108.844 26.2933L132.676 42.56C133.498 38.7689 132.702 36.4 129.422 34.32C121.422 29.24 113.769 23.6533 105.973 18.2444C105.28 17.7644 104.556 17.3556 103.684 16.7911V42.5244H108.844V26.2933ZM36.0756 42.5422C34.6889 38.6667 33.7778 37.9467 30.1244 37.9422H21.3333V16.9867H16.3733V42.5422H36.0756ZM192.022 16.8889H163.111C164.609 18.4711 164.391 21.4667 167.422 21.4444C175.182 21.3867 182.938 21.4444 190.698 21.4133C191.147 21.3793 191.593 21.311 192.031 21.2089L192.022 16.8889ZM192.022 37.7511H174.667C171.284 37.7511 169.827 38.9511 169.044 42.3956H192.013L192.022 37.7511ZM192.022 27.5289H171.68V31.9067H192L192.022 27.5289ZM132.947 31.7556V20C132.947 16.2356 132.702 16.0311 128.911 16.6222C128.778 16.6222 128.658 16.76 128.293 16.9644C128.293 20.5778 128.267 24.3289 128.329 28.0756C128.427 28.5676 128.716 29.0007 129.133 29.28C130.196 30.0533 131.333 30.7244 132.947 31.7556Z" fill="#141414"/>
<path d="M49.8665 43.0311C47.3333 42.8889 44.6532 41.8267 42.2132 40.3645C33.3243 35.0311 33.7954 23.3111 43.0576 18.4534C48.031 15.84 53.2132 15.9156 58.1954 18.5023C63.391 21.1956 66.0532 25.9022 65.3554 31.1734C64.6177 36.7911 60.951 40.0311 55.8665 41.84C54.2221 42.3956 52.6666 43.0311 49.8665 43.0311ZM50.471 21.4089C45.2932 21.4489 41.3332 25.0578 41.3776 29.7334C41.4221 34.4089 45.5288 38.0578 50.5688 37.9956C55.9999 37.9334 60.1643 34.2356 60.0888 29.5511C59.9999 25.0089 55.711 21.3689 50.471 21.4089Z" fill="white"/>
<path d="M151.582 17.4667C149.738 19.3467 148.12 21.5422 146.009 23.0489C144.971 23.7603 144.117 24.7076 143.516 25.813C142.915 26.9185 142.585 28.1505 142.552 29.4083C142.52 30.666 142.786 31.9135 143.329 33.0485C143.872 34.1835 144.676 35.1737 145.675 35.9378C149.382 38.8 155.551 38.6933 158.564 35.6C159.453 34.7111 160.004 33.4933 160.826 32.2489C158.444 32.0133 156.275 32.2844 154.635 31.48C153.333 30.8533 152.693 28.8889 151.458 27.1111C156.458 27.1111 160.933 27.0622 165.404 27.1822C165.849 27.1822 166.542 28.2267 166.591 28.8311C166.902 32.5956 165.578 35.7911 162.853 38.4C158.284 42.7733 150.569 43.9956 144.858 41.2578C139.146 38.52 136.24 33.2578 137.24 27.3778C138.129 22.1067 143.235 17.5333 149.013 16.8444C149.662 16.7689 150.32 16.7689 150.969 16.7333L151.582 17.4667Z" fill="white"/>
<path d="M69.3332 16.8H74.6932C74.6932 21.0444 74.742 25.2444 74.6932 29.4133C74.6395 30.6762 74.9034 31.9324 75.461 33.0668C76.0185 34.2012 76.8517 35.1776 77.8843 35.9067C81.1465 38.3511 84.7465 38.6444 88.3732 37C91.8754 35.4133 93.622 32.5555 93.3776 28.6355C93.3332 27.8978 93.3776 27.1555 93.3776 26.4133C93.3776 22.2 93.942 21.5467 98.8576 20.5155C98.6754 24.64 98.9509 28.7511 98.222 32.6755C96.9776 39.3422 89.4309 43.5511 81.7509 42.56C75.5287 41.7555 68.7687 35.9422 69.3065 28.2C69.5509 24.4667 69.3332 20.6978 69.3332 16.8Z" fill="white"/>
<path d="M108.845 26.2934V42.5245H103.685V16.7911C104.573 17.3378 105.28 17.7645 105.973 18.2445C113.778 23.6311 121.431 29.24 129.422 34.32C132.702 36.4 133.498 38.7645 132.676 42.56L108.845 26.2934Z" fill="white"/>
<path d="M36.0753 42.5422H16.373V16.9866H21.333V37.9422H30.1242C33.7775 37.9466 34.6886 38.6666 36.0753 42.5422Z" fill="white"/>
<path d="M192.022 16.8889V21.2089C191.583 21.311 191.138 21.3793 190.689 21.4134C182.929 21.4134 175.173 21.3867 167.413 21.4445C164.382 21.4445 164.6 18.4711 163.102 16.8889H192.022Z" fill="white"/>
<path d="M192.022 37.7778V42.4044H169.053C169.835 38.96 171.293 37.7778 174.667 37.7778H192.022Z" fill="white"/>
<path d="M192 27.5555V31.9333H171.68V27.5555H192Z" fill="white"/>
<path d="M132.947 31.7556C131.333 30.7245 130.195 30.0533 129.133 29.2845C128.716 29.0051 128.427 28.572 128.329 28.08C128.267 24.3333 128.293 20.5822 128.293 16.9689C128.658 16.7645 128.778 16.6445 128.911 16.6267C132.702 16.0356 132.947 16.24 132.947 20.0045V31.7556Z" fill="white"/>
<path d="M50.4709 21.4089C55.7109 21.3689 60.0175 25.0089 60.0886 29.5378C60.1642 34.2356 55.9998 37.9333 50.5686 37.9822C45.5286 38.0445 41.3998 34.3333 41.3775 29.72C41.3553 25.1067 45.2931 21.4489 50.4709 21.4089Z" fill="#141414"/>
</svg>
