<svg width="143" height="57" viewBox="0 0 143 57" fill="none" xmlns="http://www.w3.org/2000/svg">
<path fill-rule="evenodd" clip-rule="evenodd" d="M4.33092 55.2198H0V56.0468H23.9817V41.1603H23.2706C23.2706 41.1603 23.2706 49.7487 20.3618 52.5478C17.9055 54.9653 15.3198 55.1561 11.1182 55.1561V27.7371C11.1182 27.7371 14.027 27.5463 15.4491 28.9458C17.6469 31.1088 17.9055 33.908 17.9055 37.7886H18.6811V16.7949H17.9055C17.9055 20.6756 17.7115 23.4748 15.4491 25.6377C14.027 27.0373 11.1182 26.8465 11.1182 26.8465V0.827024C15.3198 0.827024 17.3237 1.08149 19.78 3.43533C22.6242 6.23449 22.6889 14.8228 22.6889 14.8228H23.3999V0H0V0.827024H4.33092V55.2198Z" fill="#141414"/>
<path fill-rule="evenodd" clip-rule="evenodd" d="M51.1954 0.827024V55.2197C55.397 55.2197 57.9826 54.9653 60.439 52.6114C63.2832 49.8123 63.3478 41.224 63.3478 41.224H64.0589V56.1104H40.0771V55.2834H44.4081V0.763407H40.0771V0H55.1384V0.827024H51.1954Z" fill="#141414"/>
<path fill-rule="evenodd" clip-rule="evenodd" d="M89.7212 0.827024V55.2197C93.9229 55.2197 96.5085 54.9653 98.9648 52.6114C101.809 49.8123 101.874 41.224 101.874 41.224H102.585V56.1104H78.603V55.2834H82.934V0.763407H78.603V0H93.6643V0.827024H89.7212Z" fill="#141414"/>
<path fill-rule="evenodd" clip-rule="evenodd" d="M122.429 55.2198H118.098V56.0468H142.08V41.1603H141.369C141.369 41.1603 141.369 49.7487 138.46 52.5478C136.004 54.9653 133.418 55.1561 129.216 55.1561V27.7371C129.216 27.7371 132.125 27.5463 133.547 28.9458C135.745 31.1088 136.004 33.908 136.004 37.7886H136.779V16.7949H136.004C136.004 20.6756 135.81 23.4748 133.547 25.6377C132.125 27.0373 129.216 26.8465 129.216 26.8465V0.827024C133.418 0.827024 135.422 1.08149 137.878 3.43533C140.722 6.23449 140.787 14.8228 140.787 14.8228H141.498V0H118.098V0.827024H122.429V55.2198Z" fill="#141414"/>
</svg>
