<svg width="179" height="90" viewBox="0 0 179 90" fill="none" xmlns="http://www.w3.org/2000/svg">
<path d="M173.044 66C176.456 59.539 178.21 52.3195 178.146 45C178.181 20.2857 158.212 0.157143 133.503 0C109.821 0.15 90.4051 18.8929 88.8603 42.4286C88.9879 41.1143 88.8674 39.7357 88.8603 38.5714H47.6191V57.4286L60.7993 57.8571C56.909 62.5214 51.0913 65.6286 44.6429 65.5714C41.9581 65.5885 39.2967 65.0681 36.8131 64.0403C34.3294 63.0125 32.0729 61.4979 30.1744 59.5843C28.276 57.6706 26.7734 55.396 25.7538 52.8925C24.7342 50.389 24.2179 47.7062 24.2348 45C24.2136 33.7786 33.3192 24.5857 44.6429 24.4286C52.1754 24.5857 58.8151 28.8 62.4999 35.1429L83.3332 23.1429C79.4981 16.1746 73.8942 10.3593 67.0956 6.29266C60.297 2.22604 52.5482 0.0543266 44.6429 0C19.9335 0.15 -0.035181 20.2786 0.000249703 45C-0.019409 50.915 1.12189 56.7756 3.35843 62.2442C5.59497 67.7128 8.88257 72.6814 13.0319 76.864C17.1813 81.0466 22.1105 84.3605 27.5357 86.6149C32.9608 88.8694 38.7748 90.0198 44.6429 90C68.2893 90.0571 87.677 71.3786 89.2855 48C90.4689 71.3786 109.857 90.0643 133.503 90C142.212 90.0571 150.262 87.5929 156.887 83.1429L162.414 88.7143L178.996 72L173.044 66Z" fill="#141414"/>
<path d="M153.91 47.9998L149.659 44.1426L133.927 60.8569L138.604 65.1426C136.921 65.4486 135.213 65.5921 133.502 65.5712C122.342 65.6283 113.229 56.4426 113.094 44.9998C113.185 39.5726 115.365 34.3933 119.172 30.5552C122.98 26.717 128.118 24.5202 133.502 24.4283C144.826 24.5855 153.939 33.7783 153.91 44.9998C153.939 46.0783 153.868 47.0426 153.91 47.9998Z" fill="white"/>
</svg>
