<svg width="151" height="90" viewBox="0 0 151 90" fill="none" xmlns="http://www.w3.org/2000/svg">
<g clip-path="url(#clip0)">
<path fill-rule="evenodd" clip-rule="evenodd" d="M26.9757 0.381348H28.5957L28.6403 0.382831C34.2204 0.568308 39.5543 2.56173 43.8571 6.01199C48.1599 2.56173 53.4938 0.568308 59.074 0.382831L59.1186 0.381348H60.7385L60.7832 0.382831C66.3633 0.568308 71.6972 2.56173 76 6.01199C80.3028 2.56173 85.6367 0.568308 91.2168 0.382831L91.2615 0.381348H92.8814L92.926 0.382831C98.5061 0.568308 103.84 2.56173 108.143 6.012C112.446 2.56173 117.78 0.568308 123.36 0.382831L123.404 0.381348H125.024L125.069 0.382831C131.791 0.606256 138.155 3.4531 142.79 8.30967C147.426 13.1662 149.961 19.6436 149.848 26.3454C149.736 33.0472 146.986 39.4367 142.191 44.1366C137.396 48.8365 130.94 51.4703 124.214 51.4703C118.343 51.4703 112.678 49.4633 108.143 45.8269C103.608 49.4633 97.9424 51.4703 92.0714 51.4703C86.2005 51.4703 80.5347 49.4633 76 45.8269C71.4653 49.4633 65.7995 51.4703 59.9286 51.4703C54.0576 51.4703 48.3919 49.4633 43.8571 45.8269C39.3224 49.4633 33.6567 51.4703 27.7857 51.4703C21.0602 51.4703 14.604 48.8365 9.80881 44.1366C5.01366 39.4367 2.26362 33.0472 2.15152 26.3454C2.03941 19.6436 4.57421 13.1662 9.20949 8.30967C13.8448 3.4531 20.2093 0.606256 26.9311 0.382831L26.9757 0.381348ZM47.6837 42.0316C51.1888 44.6775 55.4844 46.1313 59.9286 46.1313C64.3728 46.1313 68.6683 44.6775 72.1734 42.0316C68.5701 37.612 66.5334 32.0935 66.4372 26.3454C66.3363 20.3109 68.3813 14.4585 72.1735 9.80737C68.8661 7.31086 64.846 5.8688 60.6478 5.72033H59.2093C55.0111 5.8688 50.991 7.31086 47.6837 9.80738C51.4758 14.4585 53.5208 20.3109 53.4199 26.3454C53.3237 32.0935 51.287 37.612 47.6837 42.0316ZM43.8571 13.5915C46.6444 17.2004 48.1404 21.6617 48.0635 26.2564C47.9904 30.6242 46.5009 34.8244 43.8571 38.2475C41.2134 34.8244 39.7238 30.6242 39.6508 26.2564C39.5739 21.6617 41.0698 17.2004 43.8571 13.5915ZM40.0306 9.80737C36.2385 14.4585 34.1934 20.311 34.2944 26.3454C34.3905 32.0935 36.4273 37.612 40.0306 42.0316C36.5254 44.6775 32.2299 46.1313 27.7857 46.1313C22.4655 46.1313 17.3583 44.0479 13.5652 40.33C9.772 36.6122 7.5966 31.5578 7.50791 26.2564C7.41923 20.955 9.42437 15.8311 13.0911 11.9893C16.7479 8.15798 21.7651 5.90781 27.0664 5.72033H28.505C32.7032 5.8688 36.7233 7.31086 40.0306 9.80737ZM76 13.5915C73.2127 17.2004 71.7168 21.6617 71.7936 26.2564C71.8667 30.6242 73.3562 34.8244 76 38.2475C78.6438 34.8244 80.1333 30.6242 80.2064 26.2564C80.2832 21.6617 78.7873 17.2004 76 13.5915ZM79.8265 42.0316C83.3317 44.6775 87.6272 46.1313 92.0714 46.1313C96.5156 46.1313 100.811 44.6775 104.316 42.0316C100.713 37.612 98.6762 32.0935 98.5801 26.3454C98.4791 20.311 100.524 14.4585 104.316 9.80738C101.009 7.31086 96.9889 5.8688 92.7907 5.72033H91.3521C87.1539 5.8688 83.1339 7.31086 79.8265 9.80737C83.6186 14.4585 85.6637 20.3109 85.5628 26.3454C85.4666 32.0935 83.4298 37.612 79.8265 42.0316ZM108.143 13.5915C105.356 17.2004 103.86 21.6617 103.936 26.2564C104.01 30.6242 105.499 34.8244 108.143 38.2475C110.787 34.8244 112.276 30.6242 112.349 26.2564C112.426 21.6617 110.93 17.2004 108.143 13.5915ZM111.969 42.0316C115.475 44.6775 119.77 46.1313 124.214 46.1313C129.534 46.1313 134.642 44.0479 138.435 40.33C142.228 36.6122 144.403 31.5578 144.492 26.2564C144.581 20.955 142.576 15.8311 138.909 11.9893C135.252 8.15798 130.235 5.90781 124.934 5.72033H123.495C119.297 5.8688 115.277 7.31086 111.969 9.80738C115.761 14.4585 117.807 20.311 117.706 26.3454C117.609 32.0935 115.573 37.612 111.969 42.0316Z" fill="#141414"/>
</g>
<path d="M12.8239 85.4238H15.426L9.38006 72.0763H6.93108L0.904297 85.4238H3.46807L4.78823 82.3348H11.4847L12.8239 85.4238ZM5.63006 80.3899L8.13644 74.5551L10.6619 80.3899H5.63006Z" fill="#141414"/>
<path d="M24.2128 75.2416V80.3899C24.2128 82.4301 23.084 83.4598 21.4194 83.4598C19.908 83.4598 19.0279 82.5827 19.0279 80.7331V75.2416H16.6363V81.0572C16.6363 84.1272 18.4156 85.5573 21.0368 85.5573C22.3569 85.5573 23.5623 85.0615 24.3276 84.1272V85.4238H26.6044V75.2416H24.2128Z" fill="#141414"/>
<path d="M37.3505 71.2755V76.5C36.5469 75.5657 35.3798 75.1272 34.0597 75.1272C31.0941 75.1272 28.8939 77.1674 28.8939 80.3327C28.8939 83.4979 31.0941 85.5573 34.0597 85.5573C35.4564 85.5573 36.6426 85.0806 37.4462 84.1081V85.4238H39.7421V71.2755H37.3505ZM34.3467 83.517C32.6247 83.517 31.3046 82.2776 31.3046 80.3327C31.3046 78.3878 32.6247 77.1483 34.3467 77.1483C36.0686 77.1483 37.3888 78.3878 37.3888 80.3327C37.3888 82.2776 36.0686 83.517 34.3467 83.517Z" fill="#141414"/>
<path d="M44.0761 73.5636C44.9753 73.5636 45.6067 72.9153 45.6067 72.0763C45.6067 71.2945 44.9562 70.7034 44.0761 70.7034C43.196 70.7034 42.5455 71.3327 42.5455 72.1335C42.5455 72.9344 43.196 73.5636 44.0761 73.5636ZM42.8707 85.4238H45.2623V75.2416H42.8707V85.4238Z" fill="#141414"/>
<path d="M71.0252 85.4238L71.0061 72.0763H68.9589L63.7357 80.9238L58.4168 72.0763H56.3696V85.4238H58.7421V76.6907L63.1426 83.8984H64.2523L68.6528 76.5763L68.6719 85.4238H71.0252Z" fill="#141414"/>
<path d="M78.3163 75.1272C76.6709 75.1272 75.0829 75.5467 73.9923 76.3856L74.9298 78.1208C75.6951 77.4916 76.8813 77.1102 78.0293 77.1102C79.7321 77.1102 80.5739 77.9301 80.5739 79.3221V79.4746H77.9336C74.8341 79.4746 73.6862 80.8094 73.6862 82.5064C73.6862 84.2797 75.1594 85.5573 77.4936 85.5573C79.0242 85.5573 80.1339 85.0615 80.7079 84.1844V85.4238H82.9655V79.4556C82.9655 76.5191 81.2627 75.1272 78.3163 75.1272ZM77.991 83.8221C76.7665 83.8221 76.0395 83.2691 76.0395 82.4111C76.0395 81.6674 76.4795 81.0573 78.1058 81.0573H80.5739V82.2395C80.1721 83.2882 79.1581 83.8221 77.991 83.8221Z" fill="#141414"/>
<path d="M93.9918 75.2416V76.5954C93.1499 75.5848 91.8872 75.1272 90.4522 75.1272C87.5249 75.1272 85.2864 77.0721 85.2864 80.0276C85.2864 82.9831 87.5249 84.9662 90.4522 84.9662C91.8298 84.9662 93.0351 84.5276 93.877 83.6123V84.1462C93.877 86.2056 92.8821 87.2352 90.6244 87.2352C89.2086 87.2352 87.7545 86.7585 86.8553 86.0149L85.7838 87.8073C86.9509 88.7607 88.8451 89.2564 90.7583 89.2564C94.3361 89.2564 96.2685 87.5784 96.2685 83.8793V75.2416H93.9918ZM90.8157 82.945C88.9981 82.945 87.6971 81.7628 87.6971 80.0276C87.6971 78.3115 88.9981 77.1484 90.8157 77.1484C92.6142 77.1484 93.9152 78.3115 93.9152 80.0276C93.9152 81.7628 92.6142 82.945 90.8157 82.945Z" fill="#141414"/>
<path d="M103.316 75.1272C101.67 75.1272 100.082 75.5467 98.9918 76.3856L99.9293 78.1208C100.695 77.4916 101.881 77.1102 103.029 77.1102C104.732 77.1102 105.573 77.9301 105.573 79.3221V79.4746H102.933C99.8336 79.4746 98.6857 80.8094 98.6857 82.5064C98.6857 84.2797 100.159 85.5573 102.493 85.5573C104.024 85.5573 105.133 85.0615 105.707 84.1844V85.4238H107.965V79.4556C107.965 76.5191 106.262 75.1272 103.316 75.1272ZM102.991 83.8221C101.766 83.8221 101.039 83.2691 101.039 82.4111C101.039 81.6674 101.479 81.0573 103.105 81.0573H105.573V82.2395C105.172 83.2882 104.158 83.8221 102.991 83.8221Z" fill="#141414"/>
<path d="M113.235 83.517L118.86 76.7479V75.2416H110.307V77.1484H115.798L110.192 83.9174V85.4238H119.013V83.517H113.235Z" fill="#141414"/>
<path d="M122.423 73.5636C123.322 73.5636 123.953 72.9153 123.953 72.0763C123.953 71.2945 123.303 70.7034 122.423 70.7034C121.542 70.7034 120.892 71.3327 120.892 72.1335C120.892 72.9344 121.542 73.5636 122.423 73.5636ZM121.217 85.4238H123.609V75.2416H121.217V85.4238Z" fill="#141414"/>
<path d="M132.545 75.1272C131.053 75.1272 129.809 75.6229 129.025 76.5572V75.2416H126.748V85.4238H129.139V80.2755C129.139 78.2352 130.287 77.2056 131.99 77.2056C133.521 77.2056 134.42 78.0827 134.42 79.8941V85.4238H136.812V79.589C136.812 76.5191 134.994 75.1272 132.545 75.1272Z" fill="#141414"/>
<path d="M149.543 80.3899C149.543 77.2056 147.362 75.1272 144.378 75.1272C141.336 75.1272 139.097 77.3009 139.097 80.3327C139.097 83.3645 141.316 85.5573 144.741 85.5573C146.501 85.5573 147.936 84.9852 148.855 83.8984L147.573 82.4301C146.846 83.1738 145.946 83.5361 144.799 83.5361C143.019 83.5361 141.776 82.5827 141.489 81.0954H149.505C149.524 80.8666 149.543 80.5806 149.543 80.3899ZM144.378 77.0339C145.946 77.0339 147.075 78.0445 147.267 79.5128H141.469C141.699 78.0255 142.828 77.0339 144.378 77.0339Z" fill="#141414"/>
<defs>
<clipPath id="clip0">
<rect width="150" height="51.8644" fill="white" transform="translate(1)"/>
</clipPath>
</defs>
</svg>
