<svg width="198" height="59" viewBox="0 0 198 59" fill="none" xmlns="http://www.w3.org/2000/svg">
<path d="M17.8554 57.6667C20.4332 54.0641 22.2239 50.2714 22.282 46.0138C22.3957 41.3471 22.1219 36.6791 21.4633 32.0578C20.803 27.7738 18.1882 25.983 13.8091 25.7189C12.7527 25.6608 11.6962 25.6555 10.6397 25.7189C9.4459 25.7717 8.7856 25.402 8.78032 24.0603C8.77504 22.7185 9.19763 22.0582 10.5975 22.1269C16.9363 22.4333 20.3857 17.3094 19.5405 10.9389C18.8115 5.47689 17 4.00007 14.5 0.500069C19 0.500061 21.3418 0.110012 23.74 3.91332C28.1772 10.9811 26.4129 19.1318 19.4771 23.6377L18.7059 24.1395C23.46 26.0359 26.0642 29.5381 27.4059 34.0334C29.2495 40.2084 28.6631 46.299 26.6664 52.3262C26.4815 52.8914 26.2438 53.4355 26.0167 53.9849C24.226 58.2266 22.974 58.8288 17.8554 57.6667Z" fill="#141414"/>
<path d="M162.508 49.5529C164.689 49.0247 164.901 47.5245 164.848 45.6862C164.753 42.5168 164.763 39.3474 164.848 36.178C164.89 34.4506 164.848 32.8976 162.693 32.2215C166.433 31.9996 170.088 31.2706 173.648 32.5173C174.449 32.7528 175.153 33.2392 175.656 33.905C176.159 34.5707 176.435 35.3805 176.443 36.2149C176.522 38.1905 175.46 39.4266 173.801 40.2771C173.342 40.5095 172.851 40.6733 172.101 40.9796C174.995 43.8532 176.39 47.9365 180.864 49.2201C177.695 50.3717 175.899 49.9702 174.14 47.7728C172.74 46.0243 171.472 44.1596 170.035 42.4428C169.639 41.9622 168.847 41.809 168.234 41.5079C167.986 42.0626 167.785 42.6368 167.632 43.2246C167.573 43.8166 167.573 44.4128 167.632 45.0048C167.632 46.9857 167.262 49.2307 170.801 49.0247L170.347 49.5529H162.508ZM167.616 36.347C167.616 37.1341 167.648 37.9317 167.616 38.7082C167.547 39.8967 168.097 40.2929 169.253 40.3299C172.581 40.388 174.356 37.9476 173.168 34.8521C172.555 33.2674 170.759 32.3694 168.778 32.7127C166.876 33.035 167.891 34.5668 167.626 35.5652C167.59 35.8279 167.587 36.094 167.616 36.3576V36.347Z" fill="#141414"/>
<path d="M108.242 40.8265C108.242 46.3677 104.349 50.1129 98.6335 50.0812C92.918 50.0495 89.0883 46.2092 89.1253 40.6839C89.1253 35.3698 93.2032 31.5665 98.7709 31.651C104.423 31.7303 108.247 35.4332 108.242 40.8265ZM105.152 41.0748C105.097 39.9027 104.972 38.7349 104.777 37.5779C104.027 34.3134 101.734 32.4909 98.5913 32.5332C95.4483 32.5755 93.2244 34.2394 92.6856 37.5726C92.3259 39.8493 92.3473 42.17 92.749 44.4396C93.33 47.6513 95.4324 49.0934 98.6811 49.141C101.798 49.1885 103.858 47.6408 104.682 44.4713C104.913 43.3508 105.07 42.2161 105.152 41.0748Z" fill="#141414"/>
<path d="M127.1 44.783C127.1 41.566 127.285 38.3332 127 35.1374C126.905 34.0809 125.584 33.1406 124.887 32.2057H130.344C127.491 33.0984 127.961 35.3751 127.972 37.488C127.972 40.918 127.972 44.3463 127.972 47.7728C127.972 48.4648 127.898 49.1568 127.856 49.854L127.269 50.1287L115.03 34.065C115.03 38.703 114.898 42.8285 115.141 46.9329C115.189 47.815 116.604 48.618 117.428 49.4948H111.713L111.185 49.0564C114.47 48.7606 114.111 46.6159 114.095 44.6139C114.069 41.7826 114.058 38.946 114.095 36.1093C114.095 34.4559 114.095 32.8924 111.787 32.512C114.708 31.3077 116.705 31.7936 118.321 33.933L126.657 44.9414L127.1 44.783Z" fill="#141414"/>
<path d="M198 44.5242C197.884 45.9927 197.815 47.4664 197.598 48.9244C197.517 49.1224 197.386 49.2966 197.219 49.4305C197.052 49.5644 196.853 49.6538 196.642 49.6903C192.247 49.7431 187.852 49.7273 183.257 49.5266C186.083 48.6286 185.465 46.4311 185.475 44.503C185.475 41.471 185.475 38.4389 185.475 35.4068C185.475 34.0862 185.475 32.8079 183.732 32.1846C184.241 32.0805 184.756 32.0099 185.275 31.9733C188.043 31.9733 190.816 32.0525 193.579 31.931C195.38 31.8465 196.357 32.3272 196.22 34.2922C196.226 35.047 196.282 35.8005 196.389 36.5478C195.908 36.1939 195.644 36.1041 195.554 35.9245C194.091 33.0403 192.538 32.2268 189.421 32.8449C189.156 32.9582 188.919 33.1309 188.731 33.3497C188.542 33.5686 188.406 33.8278 188.333 34.1073C188.165 35.016 188.153 35.9466 188.296 36.8594C188.455 37.9159 187.562 39.3844 189.316 39.8387C191.069 40.293 192.036 39.7278 193.145 37.4088V43.0451C192.501 41.397 191.434 40.4039 189.627 40.7684C189.331 40.862 189.061 41.0235 188.838 41.2399C188.615 41.4563 188.446 41.7217 188.344 42.015C188.164 42.9899 188.148 43.9878 188.296 44.9679C188.471 46.3677 187.842 48.1848 189.828 48.824C192.142 49.5688 194.926 48.7078 196.04 46.9488C196.568 46.1353 196.943 45.2373 197.387 44.3763L198 44.5242Z" fill="#141414"/>
<path d="M149.038 49.5477H142.456C143.993 48.7765 145.07 48.2165 144.241 46.6477C143.412 45.0788 143.285 42.9025 140.644 43.3515C139.854 43.4097 139.062 43.4097 138.272 43.3515C136.312 43.3832 134.453 45.8553 135.103 47.7358C135.309 48.3433 135.974 48.7923 136.619 49.5318H131.215C134.537 47.3132 134.939 43.9853 136.244 41.1804C137.649 38.1536 138.853 35.037 140.396 31.3763C141.061 32.5807 141.478 33.1935 141.764 33.8643C143.317 37.5039 144.785 41.1857 146.402 44.7935C147.125 46.4364 148.129 47.9313 149.038 49.5477ZM142.435 42.4059C141.447 39.9866 140.644 37.9793 139.587 35.3857L136.756 42.4006L142.435 42.4059Z" fill="#141414"/>
<path d="M43.3536 32.2162H51.1292L51.5466 32.7445C48.2081 32.4856 48.43 34.588 48.4247 36.5372C48.4247 39.7647 48.4247 42.9923 48.4247 46.2198C48.4247 48.4648 48.8895 48.861 51.0659 49.0089C54.0134 49.2413 56.2901 48.4807 57.1564 45.3112C57.2251 45.0577 57.5262 44.8622 58.0808 44.2548C58.0808 46.1406 58.1337 47.5404 58.0333 48.9297C57.9595 49.1316 57.8354 49.3113 57.6727 49.4518C57.51 49.5923 57.3141 49.689 57.1036 49.7326C52.5238 49.7854 47.944 49.7643 43.1265 49.5213C46.2589 48.9508 45.6197 46.6741 45.6409 44.7671C45.6409 41.8037 45.5933 38.8351 45.6409 35.8769C45.699 34.0439 45.493 32.6071 43.3536 32.2162Z" fill="#141414"/>
<path d="M60.7274 49.4367C62.7241 49.0722 63.0516 47.8098 63.0252 46.1511C62.9724 42.6594 62.9565 39.1625 63.0252 35.6709C63.0674 33.933 62.7347 32.6494 60.7168 32.2215H69.0682C65.809 33.4206 65.8037 33.4206 65.8037 36.6006C65.8037 39.8968 65.8354 43.193 65.8037 46.4892C65.8037 48.1478 66.5274 48.8609 68.1596 48.956C71.9313 49.1779 72.9138 48.6497 74.4985 45.3112C74.6505 45.0484 74.8274 44.8007 75.0267 44.5717L75.6289 44.6773C75.4969 46.1775 75.4176 47.683 75.1905 49.162C75.1535 49.4103 74.4668 49.722 74.0759 49.722C69.7919 49.722 65.5079 49.722 61.2239 49.722C61.039 49.6956 60.8806 49.5265 60.7274 49.4367Z" fill="#141414"/>
<path d="M32.5195 32.174H39.9148C37.1099 32.7444 37.6381 34.9366 37.6381 36.8277C37.6381 39.6643 37.6751 42.501 37.6381 45.3376C37.5959 47.2023 37.5748 48.9719 40.0099 49.5635H32.6146C35.4248 48.8715 34.8913 46.6318 34.9072 44.6879C34.9072 41.8512 34.8596 39.0146 34.9072 36.178C34.9283 34.3292 34.7857 32.7444 32.5195 32.174Z" fill="#141414"/>
<path d="M159.19 32.174C156.951 32.6705 156.824 34.2341 156.861 36.0354C156.924 39.2048 156.935 42.3742 156.861 45.5436C156.819 47.3977 156.967 48.993 159.254 49.5582H151.827C154.759 48.824 154.056 46.4839 154.072 44.4977C154.098 41.7984 154.045 39.0939 154.072 36.3893C154.104 34.5616 154.278 32.6916 151.753 32.1634L159.19 32.174Z" fill="#141414"/>
<path d="M85.4221 49.5635H78.0268C80.4778 49.0353 80.4514 47.2446 80.4144 45.3799C80.3616 42.4165 80.4144 39.4531 80.4144 36.4949C80.4144 34.6937 80.9427 32.5543 77.5303 32.66L78.0585 32.1317H85.4538C82.67 32.6124 83.2299 34.7254 83.2194 36.4949C83.193 39.5904 83.2194 42.6859 83.2194 45.7761C83.2194 47.4717 83.2194 49.0775 85.8606 48.9825L85.4221 49.5635Z" fill="#141414"/>
<path d="M0.339291 12.6398C0.186535 12.0775 0.082267 11.5031 0.0276311 10.923C-0.00406311 8.28183 0.0540433 5.64065 0.00121965 3.04173C-0.0357569 1.21931 0.767384 0.52731 2.5 0.474486C4.14311 0.420076 6 0.500061 7.51803 0.474495C3.02802 3.32697 1.58065 7.74303 1.0841 12.6715L0.339291 12.6398Z" fill="#141414"/>
</svg>
